<?xml version="1.0" encoding="UTF-8" ?>
<!DOCTYPE svg PUBLIC "-//W3C//DTD SVG 1.1//EN" "http://www.w3.org/Graphics/SVG/1.1/DTD/svg11.dtd">
<svg width="1200pt" height="1200pt" viewBox="0 0 1200 1200" version="1.1" xmlns="http://www.w3.org/2000/svg">
<path fill="rgba(40, 40, 40, 0.5)" opacity="1.00" d=" M 601.38 21.40 C 683.13 18.93 765.34 43.73 832.21 90.79 C 865.17 113.89 894.45 142.22 918.65 174.38 C 934.66 195.51 948.16 218.47 959.68 242.32 C 976.06 259.36 991.82 277.08 1005.82 296.17 C 1058.99 367.64 1091.88 453.98 1099.70 542.71 C 1108.01 633.67 1089.94 726.83 1048.19 808.08 C 1025.71 852.07 996.45 892.60 961.78 927.80 C 960.50 929.00 959.88 930.65 959.28 932.26 C 932.47 1000.39 885.54 1060.39 825.97 1102.95 C 758.08 1151.83 673.84 1177.49 590.22 1174.61 C 509.03 1172.27 428.91 1143.14 365.09 1092.93 C 299.64 1041.78 251.64 968.79 230.77 888.37 C 230.26 886.35 229.80 884.23 228.36 882.65 C 175.62 814.14 141.77 731.29 131.37 645.46 C 120.24 555.73 134.86 463.00 173.09 381.06 C 194.40 335.11 222.98 292.54 257.40 255.38 C 258.62 254.17 259.33 252.58 260.00 251.02 C 287.82 187.24 333.47 131.39 390.38 91.37 C 451.77 47.92 526.17 23.15 601.38 21.40 M 467.03 74.01 C 403.42 101.69 348.12 148.16 310.07 206.18 C 329.73 190.74 350.32 176.44 372.05 164.03 C 420.36 136.31 473.47 116.98 528.28 107.06 C 579.13 97.90 631.45 96.86 682.61 104.09 C 763.74 115.35 841.71 147.76 907.22 196.88 C 884.40 164.27 855.94 135.64 823.71 112.30 C 760.52 66.37 682.12 41.90 604.02 43.77 C 556.97 44.76 510.15 55.18 467.03 74.01 M 450.69 151.73 C 386.04 176.20 326.94 215.25 279.19 265.25 C 277.23 267.25 276.58 270.06 275.50 272.55 C 252.47 330.87 244.79 395.30 254.15 457.33 C 268.22 421.77 287.47 388.24 311.34 358.35 C 343.24 318.27 383.30 284.74 428.30 260.28 C 497.68 222.40 578.96 206.77 657.43 216.36 C 736.93 225.70 813.13 260.78 871.90 315.13 C 914.75 354.37 948.16 403.62 969.54 457.60 C 975.66 416.50 974.43 374.34 966.21 333.61 C 960.63 306.73 952.47 280.20 940.64 255.41 C 883.81 199.04 811.89 158.10 734.56 137.51 C 641.53 112.47 540.75 117.51 450.69 151.73 M 506.69 251.89 C 468.25 263.54 431.80 281.70 399.30 305.31 C 333.74 352.76 284.92 422.91 263.56 501.00 C 263.20 502.62 264.07 504.19 264.40 505.76 C 270.69 527.32 278.89 548.33 289.06 568.35 C 306.00 544.61 325.54 522.70 347.41 503.38 C 348.75 502.29 349.51 500.72 350.15 499.16 C 370.27 451.34 404.82 409.77 448.05 381.11 C 483.48 357.49 524.64 342.58 566.96 338.00 C 610.07 333.28 654.30 339.39 694.58 355.42 C 724.85 367.46 752.89 385.09 776.82 407.19 C 801.05 429.35 820.74 456.24 835.52 485.50 C 870.96 512.96 901.92 546.29 926.03 584.15 C 940.46 558.84 951.79 531.77 959.71 503.74 C 960.61 501.43 959.51 499.10 958.94 496.87 C 950.53 468.12 938.63 440.38 923.42 414.57 C 888.39 354.73 835.66 305.46 773.61 274.52 C 735.03 255.19 692.96 242.85 650.04 238.31 C 601.99 233.20 552.92 237.79 506.69 251.89 M 981.69 301.63 C 997.38 358.49 1000.21 418.91 989.08 476.88 C 987.72 485.29 985.15 493.53 983.82 501.90 C 1001.16 569.44 999.89 641.67 979.61 708.42 C 979.00 710.55 977.99 712.76 978.75 715.00 C 989.62 768.63 988.76 824.58 976.31 877.86 C 993.22 856.75 1008.42 834.25 1021.47 810.54 C 1062.85 735.74 1082.94 649.35 1078.66 563.97 C 1074.31 469.34 1040.06 376.27 981.69 301.63 M 150.43 584.00 C 149.82 670.59 174.14 757.33 220.09 830.76 C 215.03 779.74 219.77 727.69 234.89 678.67 C 235.64 676.83 235.60 674.89 235.07 673.02 C 225.70 626.51 225.15 578.29 233.36 531.57 C 234.98 521.29 237.65 511.20 239.77 501.05 C 236.77 488.18 233.72 475.29 231.88 462.19 C 224.43 412.95 226.88 362.31 238.62 313.92 C 182.01 391.81 150.56 487.69 150.43 584.00 M 475.67 390.67 C 441.95 409.73 412.77 436.87 391.65 469.36 C 402.17 462.88 412.68 456.34 423.69 450.69 C 500.33 410.18 590.94 397.05 675.95 413.86 C 716.28 421.68 755.24 436.21 791.07 456.26 C 770.18 428.35 743.09 405.13 712.45 388.51 C 673.95 367.60 629.73 357.25 585.95 359.25 C 547.39 360.76 509.25 371.66 475.67 390.67 M 586.48 430.62 C 546.34 433.10 507.41 450.55 478.78 478.79 C 451.98 504.85 434.33 540.08 429.41 577.14 C 424.32 614.18 431.99 652.81 450.88 685.08 C 468.83 716.05 496.88 741.03 529.74 755.23 C 535.04 757.43 540.34 759.87 546.04 760.84 C 571.08 765.47 596.60 767.46 622.05 766.70 C 625.00 766.59 627.98 766.64 630.89 766.01 C 659.10 760.37 685.77 747.34 707.60 728.62 C 732.50 707.38 750.99 678.75 760.11 647.31 C 770.25 612.83 768.96 575.14 756.51 541.42 C 744.92 509.67 723.53 481.60 696.01 461.97 C 664.55 439.31 625.16 428.11 586.48 430.62 M 713.48 446.77 C 726.01 456.74 737.74 467.78 747.64 480.40 C 771.12 509.86 785.60 546.37 788.63 583.92 C 791.93 622.31 783.20 661.61 764.04 695.03 C 751.59 717.03 734.53 736.24 714.73 751.89 C 751.59 741.00 786.64 724.10 818.21 702.18 C 820.73 700.81 821.33 697.84 822.41 695.43 C 836.44 660.88 842.48 623.10 839.75 585.91 C 837.69 556.85 830.33 528.17 818.21 501.68 C 817.50 499.85 815.68 498.91 814.22 497.78 C 783.56 475.70 749.50 458.24 713.48 446.77 M 369.86 513.86 C 368.96 514.65 367.96 515.43 367.51 516.59 C 349.72 563.00 346.67 614.91 358.95 663.08 C 359.20 664.28 360.31 665.01 361.09 665.89 C 389.65 693.26 422.62 716.11 458.53 732.72 C 440.62 713.70 426.31 691.24 417.29 666.70 C 401.98 625.80 401.30 579.65 415.39 538.31 C 426.44 505.33 446.81 475.69 473.24 453.13 C 435.68 467.34 400.65 488.09 369.86 513.86 M 852.48 529.72 C 865.97 576.68 866.21 627.27 853.27 674.38 C 875.99 654.18 895.85 630.88 912.84 605.70 C 896.37 577.75 875.88 552.18 852.48 529.72 M 252.13 632.65 C 258.94 617.93 266.41 603.51 274.98 589.74 C 267.06 575.37 260.03 560.48 254.19 545.15 C 249.94 574.07 249.05 603.57 252.13 632.65 M 939.06 606.17 C 949.94 626.04 959.00 646.89 966.33 668.33 C 974.36 627.97 975.51 586.20 969.43 545.49 C 960.91 566.46 951.01 586.92 939.06 606.17 M 301.83 589.76 C 300.98 590.66 302.05 591.69 302.43 592.53 C 310.90 606.42 320.21 619.83 330.49 632.45 C 327.44 604.22 328.89 575.53 334.76 547.75 C 322.66 560.82 311.73 574.97 301.83 589.76 M 259.66 675.43 C 258.84 677.17 259.58 679.03 259.95 680.79 C 264.62 700.43 270.88 719.69 278.74 738.29 C 305.25 801.40 350.17 856.62 406.61 895.37 C 454.57 928.52 510.69 949.74 568.58 956.65 C 615.46 962.26 663.44 958.69 708.91 945.95 C 751.17 934.17 791.27 914.63 826.56 888.56 C 886.19 844.68 931.74 781.98 954.86 711.63 C 954.37 706.74 952.68 702.02 951.57 697.24 C 945.13 673.19 936.21 649.80 924.95 627.60 C 901.29 660.84 872.38 690.34 839.50 714.51 C 836.50 717.11 835.74 721.38 833.68 724.68 C 810.93 769.44 775.24 807.50 731.99 833.02 C 682.19 862.69 622.54 875.40 564.97 868.52 C 500.03 861.17 438.36 828.80 395.39 779.56 C 369.61 750.15 350.18 715.09 339.41 677.47 C 339.07 676.29 338.68 675.11 337.73 674.30 C 319.05 655.35 302.45 634.39 288.09 612.00 C 276.57 632.15 267.08 653.45 259.66 675.43 M 374.99 707.74 C 399.27 760.32 443.45 803.20 496.33 826.67 C 551.98 851.72 617.10 854.69 674.80 834.79 C 724.30 818.00 768.21 784.87 797.52 741.54 C 771.37 755.69 743.78 767.23 715.11 775.15 C 687.68 782.92 659.37 787.26 630.95 788.97 C 610.05 792.40 588.61 792.87 567.68 789.51 C 556.15 787.80 544.91 784.67 533.77 781.34 C 476.11 769.43 421.40 743.93 374.99 707.74 M 247.66 720.55 C 237.70 770.68 238.57 822.93 250.17 872.70 C 250.95 875.83 253.65 877.96 255.49 880.49 C 308.67 945.62 379.95 995.76 459.22 1023.80 C 549.03 1055.87 648.77 1059.42 740.54 1033.35 C 815.51 1012.35 884.98 972.07 940.41 917.39 C 943.40 912.90 944.28 907.31 946.24 902.32 C 961.54 855.19 967.06 804.89 962.12 755.58 C 938.15 808.33 902.39 855.73 857.80 892.79 C 794.18 946.10 712.87 977.85 629.93 981.50 C 573.28 984.32 516.05 974.14 463.72 952.28 C 399.35 925.50 342.62 880.76 301.58 824.42 C 278.42 792.82 260.34 757.60 247.66 720.55 M 267.87 928.12 C 295.96 996.93 345.95 1056.53 408.82 1096.17 C 480.22 1141.91 568.15 1160.82 652.07 1148.93 C 691.26 1143.50 729.55 1131.55 764.88 1113.75 C 828.72 1081.68 882.83 1030.27 917.48 967.75 C 881.01 996.40 840.66 1020.18 797.61 1037.52 C 708.16 1073.94 607.74 1082.81 513.29 1062.57 C 420.67 1043.02 334.24 995.60 267.87 928.12 Z" />
<path fill="rgba(40, 40, 40, 1)" opacity="1.00" d=" M 586.34 477.23 C 623.53 473.97 661.76 487.45 688.66 513.33 C 713.37 536.71 728.47 569.93 729.67 603.94 C 731.36 640.21 717.12 676.80 691.49 702.49 C 668.07 726.32 635.34 740.69 601.94 741.73 C 567.63 743.23 533.09 730.40 507.84 707.18 C 482.28 683.99 466.44 650.45 464.90 615.96 C 462.88 580.20 476.33 543.93 501.09 518.06 C 523.20 494.60 554.16 479.64 586.34 477.23 M 587.44 499.66 C 570.34 501.32 553.60 506.87 539.03 516.00 C 513.70 531.67 495.36 558.07 489.52 587.27 C 484.42 612.07 488.19 638.59 500.16 660.91 C 516.10 691.36 547.10 713.30 581.15 718.10 C 615.76 723.69 652.53 710.99 676.63 685.61 C 700.81 660.83 711.99 624.18 705.72 590.12 C 702.10 569.54 692.47 550.06 678.29 534.72 C 655.59 509.79 621.00 496.43 587.44 499.66 Z" />
<path fill="rgba(40, 40, 40, 1)" opacity="1.00" d=" M 588.44 517.72 C 622.30 513.82 657.54 530.25 676.15 558.84 C 686.96 575.01 692.51 594.63 691.72 614.06 C 691.08 632.57 684.69 650.82 673.71 665.72 C 662.71 680.80 647.04 692.38 629.43 698.54 C 612.16 704.64 593.08 705.44 575.35 700.87 C 559.46 696.82 544.72 688.46 533.05 676.95 C 518.88 663.27 509.51 644.84 506.39 625.43 C 503.12 605.59 506.56 584.74 515.98 566.98 C 530.02 539.90 558.09 520.80 588.44 517.72 M 587.42 540.67 C 566.85 543.83 548.05 556.64 537.58 574.63 C 527.71 591.17 525.18 611.83 530.60 630.30 C 534.00 642.14 540.65 652.96 549.43 661.58 C 560.85 672.65 576.12 679.64 591.96 681.08 C 609.09 682.76 626.75 677.82 640.58 667.58 C 653.43 658.15 662.92 644.25 666.99 628.84 C 670.79 614.80 670.07 599.62 665.01 585.99 C 658.78 568.94 645.67 554.56 629.30 546.73 C 616.40 540.40 601.57 538.48 587.42 540.67 Z" />
</svg>
